HIERARCHY
ROOT Hips
{
  OFFSET -35.4901 99.2528 17.4586
  CHANNELS 6 Xposition Yposition Zposition Zrotation Xrotation Yrotation
  JOINT LeftUpLeg
  {
    OFFSET 8.64259 1.95398 -2.38835
    CHANNELS 3 Zrotation Xrotation Yrotation
    JOINT LeftLeg
    {
      OFFSET 43.7702 0 0
      CHANNELS 3 Zrotation Xrotation Yrotation
      JOINT LeftFoot
      {
        OFFSET 40.6238 0 0
        CHANNELS 3 Zrotation Xrotation Yrotation
        JOINT LeftToeBase
        {
          OFFSET 12.7242 0 0
          CHANNELS 3 Zrotation Xrotation Yrotation
          End Site
          {
            OFFSET 0 0 0
          }
        }
      }
    }
  }
  JOINT RightUpLeg
  {
    OFFSET -8.2249 1.95398 -2.59336
    CHANNELS 3 Zrotation Xrotation Yrotation
    JOINT RightLeg
    {
      OFFSET 43.5653 0 0
      CHANNELS 3 Zrotation Xrotation Yrotation
      JOINT RightFoot
      {
        OFFSET 40.6238 0 0
        CHANNELS 3 Zrotation Xrotation Yrotation
        JOINT RightToeBase
        {
          OFFSET 12.7242 0 0
          CHANNELS 3 Zrotation Xrotation Yrotation
          End Site
          {
            OFFSET 0 0 0
          }
        }
      }
    }
  }
  JOINT Spine
  {
    OFFSET 0.165834 0.87714 6.61349
    CHANNELS 3 Zrotation Xrotation Yrotation
    JOINT Spine1
    {
      OFFSET 7.38963 1.71661e-005 0
      CHANNELS 3 Zrotation Xrotation Yrotation
      JOINT Spine2
      {
        OFFSET 11.9445 1.14441e-005 0
        CHANNELS 3 Zrotation Xrotation Yrotation
        JOINT Spine3
        {
          OFFSET 14.7254 4.19617e-005 0
          CHANNELS 3 Zrotation Xrotation Yrotation
          JOINT Spine4
          {
            OFFSET 10.9679 0 0
            CHANNELS 3 Zrotation Xrotation Yrotation
            JOINT RightShoulder
            {
              OFFSET 2.46616 -1.6653 3.69651
              CHANNELS 3 Zrotation Xrotation Yrotation
              JOINT RightArm
              {
                OFFSET 13.0012 0 0
                CHANNELS 3 Zrotation Xrotation Yrotation
                JOINT RightForeArm
                {
                  OFFSET 28.7848 1.52588e-005 0
                  CHANNELS 3 Zrotation Xrotation Yrotation
                  JOINT RightHand
                  {
                    OFFSET 26.5688 1.52588e-005 0
                    CHANNELS 3 Zrotation Xrotation Yrotation
                    End Site
                    {
                      OFFSET 0 0 0
                    }
                  }
                }
              }
            }
            JOINT LeftShoulder
            {
              OFFSET 2.38034 -1.29275 -3.7523
              CHANNELS 3 Zrotation Xrotation Yrotation
              JOINT LeftArm
              {
                OFFSET 16.3182 6.10351e-005 0
                CHANNELS 3 Zrotation Xrotation Yrotation
                JOINT LeftForeArm
                {
                  OFFSET 27.0901 0 0
                  CHANNELS 3 Zrotation Xrotation Yrotation
                  JOINT LeftHand
                  {
                    OFFSET 24.5451 1.52588e-005 0
                    CHANNELS 3 Zrotation Xrotation Yrotation
                    End Site
                    {
                      OFFSET 0 0 0
                    }
                  }
                }
              }
            }
            JOINT Neck
            {
              OFFSET 5.0226 -0.0266342 0
              CHANNELS 3 Zrotation Xrotation Yrotation
              JOINT Head
              {
                OFFSET 6.69364 2.86102e-005 0
                CHANNELS 3 Zrotation Xrotation Yrotation
                End Site
                {
                  OFFSET 0 0 0
                }
              }
            }
          }
        }
      }
    }
  }
}
MOTION
Frames:	12
Frame Time:	0.0416667
36.0582 9.55742 39.5283 5.52049 -11.6949 0.961539 -172.861 -2.03039 98.8922 -29.8144 15.2488 2.90225 85.9302 11.3013 -1.73451 21.1085 4.18527 -5.45001 165.188 -12.9134 82.7987 -13.1954 -6.9397 0.780074 83.8534 -11.8519 1.07993 36.7687 -0.71608 0.980169 0.168568 5.97208 -90.2541 14.93 0.207339 -0.541582 3.25891 0.183303 -0.550209 -19.2757 0.360521 -0.454254 0.736962 0.360522 -0.454243 93.9129 -13.3905 -104.931 34.0003 -8.92661 27.8346 -67.0994 25.5948 -90.2762 -68.9942 -9.8082 7.26038 -85.7994 -27.0312 80.6602 -6.78855 6.65049 10.4085 55.4991 -31.3659 -105.392 40.8691 7.81942 15.4178 61.3413 -4.54754 -2.81811 -20.6217 -2.22477 0.432333 
36.0319 9.5261 39.5315 5.60104 -11.7684 0.886295 -172.502 -1.91049 99.1206 -30.1116 15.7277 2.57459 85.4202 11.1288 -1.5288 21.5165 5.06344 -6.8139 165.182 -12.9041 82.6738 -13.426 -6.24184 0.731527 84.2648 -11.6097 2.54636 36.4851 -0.467677 0.182514 0.16122 5.98292 -90.2561 14.9083 0.191867 -0.543209 3.23723 0.167777 -0.55114 -19.2974 0.346255 -0.460426 0.715294 0.346256 -0.460443 93.9699 -13.1986 -104.872 33.7066 -8.61791 27.743 -69.3102 25.1165 -90.047 -67.4534 -10.5366 8.7256 -85.841 -27.2688 80.6355 -6.46591 6.74277 10.2697 55.0218 -31.3384 -105.562 40.062 7.65717 15.4165 58.3 -4.77337 -3.93344 -16.6307 -2.08501 2.47146 
36.0154 9.51968 39.5095 5.51245 -11.7779 0.804403 -172.371 -2.00396 99.1869 -29.8087 15.8888 2.39956 86.1062 11.3681 -1.9228 19.9487 4.26968 -5.35208 165.166 -12.6701 82.6056 -13.8653 -6.45996 0.720436 84.2855 -11.6483 2.13961 36.6652 -0.546335 0.418845 0.181698 6.00146 -90.2418 14.8714 0.239576 -0.521343 3.20034 0.216395 -0.531391 -19.3344 0.385178 -0.425243 0.678255 0.385183 -0.42525 94.1106 -13.2361 -104.474 33.1372 -8.1574 27.3254 -71.2166 24.4576 -90.1146 -65.8006 -11.4061 10.5427 -85.9793 -26.8176 80.2403 -6.55052 6.33457 10.5314 54.95 -31.2255 -105.681 40.4854 7.73289 15.3941 57.2441 -5.14608 -4.92621 -15.0055 -1.98617 3.98449 
36.0331 9.55067 39.5128 5.64751 -11.7627 0.78027 -172.496 -1.9304 99.0756 -29.8704 15.7968 2.49166 85.9734 11.3089 -1.95826 20.1288 4.2699 -5.38809 165.106 -12.6008 82.5335 -13.9565 -6.19192 0.750297 84.3926 -11.5609 2.6006 36.5789 -0.579782 0.546677 0.152474 5.99195 -90.2592 14.8902 0.173125 -0.546582 3.21913 0.148894 -0.553682 -19.3154 0.329388 -0.469291 0.697273 0.329381 -0.469295 94.0502 -13.0259 -104.739 33.12 -8.25851 27.4153 -72.2355 24.2406 -89.6716 -64.8727 -11.5012 10.9878 -85.8987 -27.4852 80.5751 -6.01769 6.68914 10.4248 54.7493 -31.2203 -105.733 40.4626 7.81111 15.6011 57.2137 -4.95974 -4.74697 -15.1632 -1.92509 3.88181 
36.0147 9.53106 39.5227 5.66577 -11.7662 0.768616 -172.4 -1.93417 99.1472 -29.884 16.0431 2.42224 85.9806 11.316 -1.89855 20.1495 4.13046 -5.19324 165.155 -12.643 82.5601 -13.9037 -6.08474 0.705086 84.3748 -11.543 2.73488 36.8456 -0.430819 -0.00530468 0.141253 5.98591 -90.2629 14.9022 0.149047 -0.550438 3.23109 0.124676 -0.556486 -19.3034 0.307582 -0.480208 0.709242 0.307587 -0.480227 94.0262 -13.0381 -104.797 33.0593 -8.43445 27.5081 -72.7556 24.2666 -89.507 -63.3657 -11.2451 11.0572 -85.7195 -27.6537 80.9782 -6.06175 7.1139 10.2709 54.665 -31.2053 -105.511 39.5265 7.37187 14.9618 57.4395 -4.8008 -4.42027 -15.5529 -1.93583 3.43579 
36.0038 9.5238 39.5191 5.7099 -11.7104 0.793314 -172.464 -1.83174 99.1361 -29.9408 16.0575 2.49683 85.88 11.2653 -1.95693 20.3475 4.39487 -5.60763 165.176 -12.6514 82.6267 -13.8524 -6.19385 0.721264 84.3105 -11.6194 2.33532 36.5579 -0.582231 0.558556 0.120303 5.96673 -90.3006 14.9401 0.0887666 -0.617592 3.26901 0.0615054 -0.620897 -19.2652 0.27027 -0.562356 0.747508 0.270271 -0.56236 93.9844 -12.6519 -105.105 33.7095 -9.04696 27.7973 -70.5925 24.9879 -89.5588 -66.2102 -10.5247 9.03483 -85.9399 -28.0467 80.635 -5.6554 6.88205 10.7566 54.3434 -31.2415 -105.894 40.0882 7.67682 15.4518 57.6119 -4.39286 -3.92001 -15.8402 -1.85309 3.13805 
35.9851 9.52667 39.5041 5.65233 -11.7646 0.739203 -172.427 -1.96021 99.1137 -29.8218 16.1068 2.44068 85.8871 11.3347 -1.68471 20.3062 4.5566 -5.83027 165.182 -12.5892 82.5849 -14.0373 -6.12425 0.694746 84.3966 -11.6236 2.41356 36.816 -0.59386 0.556111 0.119029 5.95155 -90.3275 14.9707 0.0727943 -0.669124 3.2996 0.0432722 -0.671682 -19.2344 0.270525 -0.616315 0.778291 0.27052 -0.616326 93.9346 -12.3348 -105.403 33.2131 -8.40417 27.9592 -72.8473 24.1374 -89.5139 -65.0574 -11.9543 11.6523 -85.9579 -29.0068 80.8355 -4.7 7.02321 10.6028 54.0179 -31.1249 -105.882 39.4686 7.45741 15.21 57.5854 -3.88442 -3.20785 -15.9572 -1.77115 2.47333 
35.9949 9.52253 39.5019 5.83852 -11.7631 0.708332 -172.469 -1.92537 99.0712 -29.8459 16.1767 2.47373 85.8984 11.3304 -1.74851 20.2436 4.52602 -5.7746 165.062 -12.6346 82.4798 -13.9723 -5.96063 0.756013 84.485 -11.549 2.80153 36.5812 -0.474515 0.189361 0.089524 5.96575 -90.3333 14.9418 0.0116359 -0.671841 3.2707 -0.0179418 -0.67171 -19.2632 0.213007 -0.637292 0.749496 0.213012 -0.637285 94.0662 -12.0133 -105.204 33.5156 -8.62015 27.7637 -73.2871 24.2185 -89.1715 -64.4802 -11.7423 11.4851 -85.6313 -29.0026 81.481 -4.83462 7.13794 10.0473 54.2318 -31.0684 -105.702 39.8975 7.58394 15.3151 58.1396 -3.84145 -3.22181 -16.3461 -1.70283 2.41954 
35.9764 9.50928 39.4959 5.9023 -11.744 0.702024 -172.401 -1.89974 99.1271 -29.8513 16.4227 2.41976 85.9309 11.2975 -1.97085 20.0451 3.69768 -4.55843 165.075 -12.6084 82.5098 -14.0565 -5.93401 0.766141 84.4282 -11.5927 2.49634 36.9082 -0.658705 0.763202 0.078591 5.93319 -90.385 15.0068 -0.0359224 -0.768911 3.33566 -0.0697233 -0.766577 -19.1977 0.196817 -0.744161 0.814893 0.196823 -0.744168 94.0181 -11.3865 -105.668 34.0612 -8.83464 28.3194 -71.8438 24.677 -89.3609 -64.6222 -10.9238 10.1315 -85.6702 -30.2552 81.6938 -3.83787 7.48446 9.55687 54.0272 -30.905 -105.508 39.193 7.44164 15.3076 58.2542 -3.03954 -1.54312 -16.9397 -1.88192 0.893777 
35.9823 9.51411 39.4816 5.75176 -11.7939 0.610041 -172.519 -2.10884 98.9571 -29.6556 16.0531 2.4724 86.0265 11.3928 -1.80395 20.2927 4.26742 -5.41455 165.023 -12.5141 82.4105 -14.2416 -6.2907 0.740063 84.5413 -11.7097 2.13095 36.706 -0.585281 0.544953 0.100606 5.91622 -90.3939 15.0407 0.00308997 -0.792685 3.36949 -0.0318013 -0.792053 -19.1638 0.241181 -0.755108 0.848783 0.241167 -0.755131 93.9835 -11.2801 -105.822 34.7937 -9.62812 28.8749 -67.9487 25.5021 -89.9728 -67.0231 -9.2853 6.92347 -85.6507 -31.0575 81.9124 -3.23503 7.92668 9.74875 54.0857 -30.9884 -105.419 39.3358 7.42137 15.1838 58.5265 -2.74396 -0.997806 -17.325 -1.92062 0.512749 
35.9906 9.51923 39.4684 5.76124 -11.8019 0.609452 -172.496 -2.13724 98.9904 -29.624 15.8783 2.43637 86.2755 11.3548 -2.44983 19.8099 3.80945 -4.6818 165.014 -12.4377 82.3864 -14.4245 -6.1828 0.758704 84.6567 -11.6417 2.46329 36.6543 -0.509251 0.293857 0.0534743 5.8692 -90.4186 15.1345 -0.102784 -0.826264 3.46324 -0.139048 -0.820938 -19.0698 0.150284 -0.818941 0.942833 0.150279 -0.818966 93.2721 -11.6431 -107.606 32.9813 -7.78964 30.3599 -71.4734 24.2527 -89.7223 -61.1076 -9.88844 9.46682 -85.7934 -31.1106 81.653 -3.26461 7.86122 11.3482 52.9743 -30.5892 -105.954 39.9684 7.42534 14.8935 58.276 -2.23502 -0.275768 -17.5609 -1.85701 -0.0191759 
35.9743 9.51532 39.5001 5.79627 -11.7222 0.652255 -172.366 -2.03321 99.0746 -29.6614 16.5705 2.35633 85.9633 11.4234 -1.58495 20.1132 3.75013 -4.64684 165.102 -12.3916 82.5343 -14.5014 -5.92995 0.774265 84.6284 -11.6507 2.37267 36.1844 -0.291932 -0.350601 0.0467684 5.89464 -90.4108 15.0835 -0.11196 -0.809273 3.41228 -0.147474 -0.803557 -19.1209 0.136425 -0.805502 0.891777 0.136422 -0.805519 93.4678 -11.5359 -107.124 32.9219 -7.13923 30.6484 -70.4023 24.289 -90.9479 -65.2786 -11.7376 11.3773 -85.6471 -30.2399 81.7349 -4.24697 7.03023 12.54 53.2521 -31.0912 -106.027 36.5736 6.24615 13.3888 59.4664 -2.48348 -0.476457 -19.0255 -2.03622 0.526915 
